<svg width="50" height="50" xmlns="http://www.w3.org/2000/svg">

 <g>
  <title>background</title>
  <rect fill="none" id="canvas_background" height="402" width="582" y="-1" x="-1"/>
 </g>
 <g>
  <title>Layer 1</title>
  <g id="svg_1">
   <g id="svg_2">
    <path id="svg_3" fill="#2899C0" d="m50.190476,45.613952c0,2.633 -2.134,4.767 -4.767,4.767l-40.466,0c-2.633,0 -4.767,-2.134 -4.767,-4.767l0,-40.466c0,-2.633 2.134,-4.767 4.767,-4.767l40.466,0c2.633,0 4.767,2.134 4.767,4.767l0,40.466z"/>
    <path id="svg_4" opacity="0.2" d="m50.190476,45.613952l0,-12.763l-16.542,-16.558l-3.818,0.412l-1.997,-2.029l-1.328,-1.331l-6.59,2.983l-0.784,-0.164l-0.76,-0.763l-0.223,0.302l-1.3,5.514l-3.945,3.831l1.292,1.286l1.95,1.939l-1.119,4.623l17.451,17.485l12.946,0c2.633,0 4.767,-2.134 4.767,-4.767z"/>
    <g id="svg_5">
     <g id="svg_6">
      <path id="svg_7" fill="#FFFFFF" d="m25.190476,14.905952c-5.785,0 -10.475,4.69 -10.475,10.475s4.69,10.475 10.475,10.475s10.475,-4.69 10.475,-10.475s-4.69,-10.475 -10.475,-10.475zm0,17.807c-4.05,0 -7.332,-3.283 -7.332,-7.332s3.282,-7.332 7.332,-7.332s7.332,3.282 7.332,7.332s-3.282,7.332 -7.332,7.332z"/>
      <path id="svg_8" fill="#FFFFFF" d="m25.190476,36.395952c-6.074,0 -11.015,-4.941 -11.015,-11.015s4.941,-11.015 11.015,-11.015s11.015,4.941 11.015,11.015s-4.941,11.015 -11.015,11.015zm0,-20.95c-5.478,0 -9.935,4.457 -9.935,9.935s4.457,9.935 9.935,9.935s9.935,-4.457 9.935,-9.935s-4.457,-9.935 -9.935,-9.935zm0,17.808c-4.341,0 -7.873,-3.532 -7.873,-7.873s3.532,-7.873 7.873,-7.873s7.873,3.532 7.873,7.873s-3.532,7.873 -7.873,7.873zm0,-14.665c-3.745,0 -6.792,3.047 -6.792,6.792s3.047,6.792 6.792,6.792s6.792,-3.047 6.792,-6.792s-3.047,-6.792 -6.792,-6.792z"/>
     </g>
     <g id="svg_9">
      <path id="svg_10" fill="#FFFFFF" d="m25.084476,13.019952c-1.328,0 -1.452,0.373 -1.452,0.373l0,2.78l1.452,0l1.452,0l0,-2.78c0,0.001 -0.124,-0.373 -1.452,-0.373z"/>
      <path id="svg_11" fill="#FFFFFF" d="m18.371476,15.401952c0,0 -0.335,-0.206 -1.352,0.647c-1.017,0.853 -0.872,1.219 -0.872,1.219l1.787,2.129l1.112,-0.933l1.112,-0.933l-1.787,-2.129z"/>
      <path id="svg_12" fill="#FFFFFF" d="m15.892476,24.101952l0.252,-1.43l-2.737,-0.483c0,0 -0.389,0.058 -0.62,1.365c-0.231,1.307 0.116,1.495 0.116,1.495l2.737,0.483l0.252,-1.43z"/>
      <path id="svg_13" fill="#FFFFFF" d="m16.374476,29.188952l-2.407,1.39c0,0 -0.261,0.294 0.403,1.444c0.664,1.15 1.049,1.071 1.049,1.071l2.407,-1.39l-0.726,-1.257l-0.726,-1.258z"/>
      <path id="svg_14" fill="#FFFFFF" d="m20.739476,34.033952l-0.951,2.612c0,0 -0.011,0.393 1.237,0.847c1.247,0.454 1.492,0.146 1.492,0.146l0.951,-2.612l-1.364,-0.497l-1.365,-0.496z"/>
      <path id="svg_15" fill="#FFFFFF" d="m28.562476,34.442952l-1.364,0.497l0.951,2.612c0,0 0.245,0.308 1.492,-0.146c1.247,-0.454 1.237,-0.847 1.237,-0.847l-0.951,-2.612l-1.365,0.496z"/>
      <path id="svg_16" fill="#FFFFFF" d="m34.179476,28.966952l-0.726,1.257l-0.726,1.257l2.407,1.39c0,0 0.386,0.079 1.049,-1.071c0.664,-1.15 0.403,-1.444 0.403,-1.444l-2.407,-1.389z"/>
      <path id="svg_17" fill="#FFFFFF" d="m37.593476,23.301952c-0.231,-1.307 -0.62,-1.365 -0.62,-1.365l-2.737,0.483l0.252,1.43l0.252,1.43l2.737,-0.483c0,-0.001 0.347,-0.188 0.116,-1.495z"/>
      <path id="svg_18" fill="#FFFFFF" d="m33.210476,15.884952c-1.017,-0.853 -1.352,-0.647 -1.352,-0.647l-1.787,2.129l1.112,0.933l1.112,0.933l1.787,-2.129c0,0 0.144,-0.366 -0.872,-1.219z"/>
     </g>
    </g>
   </g>
  </g>
 </g>
</svg>